<svg xmlns="http://www.w3.org/2000/svg" viewBox="0 0 580 160" fill="none"><g fill="#ffffff">
    <path d="M8,55 L8,35 L0,35 L0,18 L8,18 L8,0 L28,0 L28,18 L46,18 L46,35 L28,35 L28,90 C28,100 33,104 42,104 L46,104 L46,122 L38,122 C18,122 8,112 8,94Z"/>
    <path d="M60,70 C60,44 78,16 108,16 C137,16 152,42 152,66 L152,76 L82,76 C84,96 95,105 110,105 C122,105 130,100 136,92 L150,102 C142,115 128,124 108,124 C78,124 60,103 60,70Z M82,60 L130,60 C129,45 121,32 108,32 C94,32 85,45 82,60Z"/>
    <path d="M168,18 L188,18 L188,32 C195,23 205,16 218,16 C232,16 242,22 247,33 C255,22 266,16 280,16 C299,16 309,29 309,50 L309,122 L289,122 L289,54 C289,42 284,34 273,34 C262,34 254,43 254,56 L254,122 L234,122 L234,54 C234,42 229,34 218,34 C207,34 198,43 198,56 L198,122 L168,122Z"/>
    <path d="M324,18 L344,18 L344,32 C351,23 362,16 376,16 C402,16 422,40 422,70 C422,100 402,124 376,124 C363,124 352,118 344,110 L344,160 L324,160Z M372,34 C355,34 344,48 344,70 C344,92 355,106 372,106 C390,106 401,92 401,70 C401,48 390,34 372,34Z"/>
    <path d="M436,70 C436,42 458,16 487,16 C516,16 538,42 538,70 C538,100 516,124 487,124 C458,124 436,100 436,70Z M487,34 C470,34 458,48 458,70 C458,92 470,106 487,106 C504,106 517,92 517,70 C517,48 504,34 487,34Z"/>
    <circle cx="564" cy="112" r="12" fill="#ffffff"/>
  </g></svg>